<?xml version="1.0" encoding="iso-8859-1"?>
<!-- Generator: Adobe Illustrator 19.0.0, SVG Export Plug-In . SVG Version: 6.00 Build 0)  -->
<svg version="1.1" id="Capa_1" xmlns="http://www.w3.org/2000/svg" xmlns:xlink="http://www.w3.org/1999/xlink" x="0px" y="0px"
	 viewBox="0 0 512 512" style="enable-background:new 0 0 512 512;" xml:space="preserve">
<g>
	<g>
		<path d="M495.787,221.952l6.827-68.352h0.853c4.713,0,8.533-3.821,8.533-8.533s-3.82-8.533-8.533-8.533h-34.133v-27.981
			l19.763-6.588c2.896-0.963,5.059-3.399,5.672-6.389c0.614-2.99-0.414-6.08-2.697-8.107c-2.282-2.027-5.473-2.681-8.369-1.718
			l-25.6,8.533c-3.492,1.163-5.845,4.434-5.837,8.115v34.133h-25.6c-4.713,0-8.533,3.82-8.533,8.533s3.82,8.533,8.533,8.533h0.853
			l6.827,68.267H409.6V76.8c-0.006-13.88-3.803-27.494-10.982-39.373c-0.176-0.34-0.376-0.668-0.597-0.981
			C384.06,13.821,359.385,0.033,332.8,0H179.2c-26.585,0.033-51.26,13.821-65.22,36.446c-0.221,0.313-0.421,0.641-0.597,0.981
			C106.203,49.306,102.406,62.92,102.4,76.8v145.067H17.067C7.641,221.867,0,229.508,0,238.933V281.6
			c0,9.426,7.641,17.067,17.067,17.067H102.4v30.601l-30.165,30.174c-3.46,3.518-6.284,7.609-8.346,12.092
			c-0.171,0.274-0.325,0.559-0.461,0.853c-2.424,5.418-3.682,11.285-3.695,17.22V409.6c0,14.138,11.461,25.6,25.6,25.6h85.333
			v59.733c0,9.426,7.641,17.067,17.067,17.067h136.533c9.426,0,17.067-7.641,17.067-17.067V435.2h85.333
			c14.138,0,25.6-11.461,25.6-25.6v-19.994c-0.015-5.93-1.274-11.79-3.695-17.203c-0.137-0.295-0.294-0.58-0.469-0.853
			c-2.056-4.481-4.878-8.57-8.337-12.083L409.6,329.267v-30.601h85.333c9.426,0,17.067-7.641,17.067-17.067v-42.667
			C511.966,229.864,504.845,222.405,495.787,221.952z M389.649,58.522c1.91,5.905,2.883,12.072,2.884,18.278v247.467h-51.2v-85.333
			V153.6c-0.018-6.381-1.844-12.627-5.265-18.014L389.649,58.522z M179.2,17.067h153.6c18.946,0.021,36.756,9.041,47.983,24.303
			l-57.301,82.415c-4.975-2.792-10.577-4.278-16.282-4.318H204.8c-5.705,0.04-11.307,1.526-16.282,4.318L131.217,41.37
			C142.443,26.107,160.253,17.086,179.2,17.067z M247.467,247.467h76.8v76.8H256h-68.267v-76.8h25.6c4.713,0,8.533-3.82,8.533-8.533
			s-3.821-8.533-8.533-8.533h-25.6v-76.8c0-9.426,7.641-17.067,17.067-17.067h102.4c9.426,0,17.067,7.641,17.067,17.067v76.8h-76.8
			c-4.713,0-8.533,3.82-8.533,8.533S242.754,247.467,247.467,247.467z M119.467,76.8c0.001-6.206,0.974-12.374,2.884-18.278
			l53.581,77.065c-3.421,5.387-5.247,11.633-5.265,18.014v170.667h-51.2V76.8z M17.067,281.6v-42.667H102.4V281.6H17.067z
			 M324.267,494.933H187.733V435.2h136.533V494.933z M423.134,366.933H179.2c-4.713,0-8.533,3.82-8.533,8.533S174.487,384,179.2,384
			h255.317c0.437,1.837,0.666,3.718,0.683,5.606V409.6c0,4.713-3.82,8.533-8.533,8.533H85.333c-4.713,0-8.533-3.82-8.533-8.533
			v-19.994c0.017-1.888,0.246-3.769,0.683-5.606h67.584c4.713,0,8.533-3.82,8.533-8.533s-3.821-8.533-8.533-8.533H88.866l25.6-25.6
			h283.068L423.134,366.933z M485.547,153.6l-6.827,68.267h-27.221l-6.827-68.267H485.547z M494.933,281.6H409.6v-42.667h85.333
			V281.6z"/>
	</g>
</g>
<g>
</g>
<g>
</g>
<g>
</g>
<g>
</g>
<g>
</g>
<g>
</g>
<g>
</g>
<g>
</g>
<g>
</g>
<g>
</g>
<g>
</g>
<g>
</g>
<g>
</g>
<g>
</g>
<g>
</g>
</svg>
